<svg xmlns="http://www.w3.org/2000/svg" xmlns:xlink="http://www.w3.org/1999/xlink" width="143.8" height="23.434" viewBox="0 0 143.8 23.434">
  <defs>
    <clipPath id="clip-path">
      <rect id="Rectangle_53" data-name="Rectangle 53" width="143.8" height="23.434" fill="none"/>
    </clipPath>
  </defs>
  <g id="Group_23" data-name="Group 23" transform="translate(0 -189)">
    <g id="Group_23-2" data-name="Group 23" transform="translate(0 189)" clip-path="url(#clip-path)">
      <path id="Path_8" data-name="Path 8" d="M15.474,11.715h8.832A12.023,12.023,0,0,1,12.162,23.434,11.974,11.974,0,0,1,0,11.715,11.972,11.972,0,0,1,12.162,0c2.987,0,8.346,1.821,10.218,5.026ZM7.893,16.184V12.795h7.123v3.389a3.563,3.563,0,0,1-7.123,0m7.123-8.579v3.4H7.893v-3.4a3.564,3.564,0,0,1,7.123,0" fill="#fff" fill-rule="evenodd"/>
      <path id="Path_9" data-name="Path 9" d="M114.666,18.1a5.318,5.318,0,0,1-1.222,3.567,7.56,7.56,0,0,1-3.227,1.922l-.63-.953a2.663,2.663,0,0,0,1.435-.856,3.071,3.071,0,0,0,.344-1.591l.022-1.439a7.7,7.7,0,0,1-3.563,1.263,5.064,5.064,0,0,1-3.149-1.213,6.037,6.037,0,0,1-2.078-2.762,7.877,7.877,0,0,1-.441-2.7A6.427,6.427,0,0,1,104.3,8.306a17.063,17.063,0,0,1,4.774-2.618,7.751,7.751,0,0,1,5,2.262l-1.762,2.725a6.654,6.654,0,0,0-4.228-3.122,3.33,3.33,0,0,0-2.151,1.307,6.367,6.367,0,0,0-.654,3.309,7.187,7.187,0,0,0,1.386,4.425,3.78,3.78,0,0,0,2.976,1.8q.379,0,1.8-1.713l.051-2.257c.017-.4-.1-.625-.337-.677l-.139.012h-.453v-.979L114.8,12.3Zm7.812,1.317a6.013,6.013,0,0,1-1.837.04l-1.229-.084-.788.057-1.325.11-.05-13.058c-.01-.211-.129-.936-.358-2.185-.062-.352-.169-.529-.331-.529l-.131-.027-.448.125,0-1.045L119.637,1.8a22.1,22.1,0,0,1,.888,5.377V9.051l-.112,8.658.821.122.354.024.263.029a1.5,1.5,0,0,0,.391-.122l1.321-.846.695.819a4.588,4.588,0,0,1-1.78,1.678m12.145-1.095a5.168,5.168,0,0,1-2.341,1.1q-1.272.243-2.532.476a6.344,6.344,0,0,1-4.189-2.172,6.824,6.824,0,0,1-1.555-4.57,6.446,6.446,0,0,1,2.054-5.041A13.011,13.011,0,0,1,131,5.688a6.755,6.755,0,0,1,4.685,2.371l-2.205,1.88a10.183,10.183,0,0,0-2.285-1.862,4,4,0,0,0-1.58-.619c-.723,0-1.327.535-1.817,1.61a6.978,6.978,0,0,0-.64,2.587l4.823.109a4.212,4.212,0,0,0,2.229-.681l.554.979a11.149,11.149,0,0,1-2.18,1.141,7.9,7.9,0,0,1-2.455.37l-2.9.022a5.53,5.53,0,0,0,1.611,3.088,4.177,4.177,0,0,0,2.909,1.483q1.334,0,2.064-3.334l2.13.775a5.684,5.684,0,0,1-1.323,2.71M146.506,19.7q-.351,0-.591-.5a1.553,1.553,0,0,1-.2-.817l.01-.423.026-.354.633-6.444c.01-.106.013-.207.013-.3a2.647,2.647,0,0,0-1.105-1.956,3.669,3.669,0,0,0-2.338-.973,3.825,3.825,0,0,0-1.307,1.654,5.311,5.311,0,0,0-.59,2.174l-.1,7.531-3.121.464.161-9.085-.076-.737-.112-.651-.365-1.3c.024-.045.012-.1-.039-.163-.034-.036-.065-.049-.088-.041h-.4l-.265-1.08,3.552-.96.592,1.682.164.672a8.272,8.272,0,0,1,3.905-2.41,5.455,5.455,0,0,1,3.338,1.8,4.654,4.654,0,0,1,1.4,3.5c-.007.118-.024.3-.05.547l-.7,6.048a1.262,1.262,0,0,0,.075.519.146.146,0,0,1,.014.053l.065-.013.581-.069.115,1.14Zm20.592.027-.16-.151a.21.21,0,0,1-.05-.04,1.887,1.887,0,0,1-.4-1.565l.016-.353.623-6.714a2.732,2.732,0,0,0-.722-1.945,2.245,2.245,0,0,0-1.743-.955,2.434,2.434,0,0,0-.675.136,15.458,15.458,0,0,0-.97,1.631l-.1.274-.1,9.249-3.119.462.181-8.841a3.162,3.162,0,0,0-.607-1.986,2.109,2.109,0,0,0-1.752-.925,1.23,1.23,0,0,0-.254.027l-.491.149-.746,1.238a1.578,1.578,0,0,0-.265.572l-.088,9.3-3.122.462.161-9.085-.074-.737-.114-.651-.366-1.3c.026-.045.014-.1-.036-.163-.034-.036-.065-.049-.09-.041h-.4l-.266-1.08,3.527-.96c.311.85.524,1.488.643,1.919a6.8,6.8,0,0,1,3.085-1.975h.165c1.363,0,2.552.79,3.552,2.368a6.615,6.615,0,0,1,3.45-2.368,4.14,4.14,0,0,1,3.153,1.65,5.042,5.042,0,0,1,1.432,3.269l-.05.369-.048.56-.646,5.709a3.427,3.427,0,0,0,.049.954l.1-.014.555-.164.113,1.2Zm13.95.307-1.224-1.727-.477-.846A11.437,11.437,0,0,1,174.02,19.7a3.568,3.568,0,0,1-1.527-.954,2.379,2.379,0,0,1-.731-1.651q0-2.671,5.634-5.288c-.4-1.275-.628-1.987-.694-2.141a3.84,3.84,0,0,0-1.36-1.719l-1.147.776-.706-.843,1.954-1.553.729-.492.579-.149a3.19,3.19,0,0,1,2.37,1.567,15.522,15.522,0,0,1,1.573,4.522,18.358,18.358,0,0,0,2.937,6.446Zm-3.253-6.867.307.2h-.408a3.517,3.517,0,0,0-2.252.716,2.08,2.08,0,0,0-.919,1.658q0,.793,1.452,2.009l.1.012h.193q1.731,0,2.3-2.019Zm10.525,2.767-.053,3.374-3.121.447.162-9.071-.078-.736-.112-.666-.365-1.3a.157.157,0,0,0-.025-.163.172.172,0,0,0-.113-.041h-.393l-.264-1.066,3.532-.974.451,1.167.153.5a12.681,12.681,0,0,1,3.009-1.726,5.948,5.948,0,0,1,3.643,1.5,4.83,4.83,0,0,1,1.491,3.68q0,2.889-3.79,4.375,2.682,3.229,3.827,3.231h.19l.543-.074v.966a4.489,4.489,0,0,1-2.019.531,6.251,6.251,0,0,1-.741.056,5.655,5.655,0,0,1-3.761-2l-1.017-1-.2-.235a5.821,5.821,0,0,0-.952-.78m0-1.05h.362a5.885,5.885,0,0,0,2.927-.653,2.706,2.706,0,0,0,1.454-2.513,3.94,3.94,0,0,0-1.042-2.7,2.986,2.986,0,0,0-2.232-1.175.582.582,0,0,0-.215.026L189.222,8a7.858,7.858,0,0,0-.754,2.136,7.369,7.369,0,0,0-.1,1.24Zm15.686-2.069a6.832,6.832,0,0,1,2.079,2.031l.806,1.06.175.272q1.736,2.246,2.659,2.248l.187.914-1.488.475-1.14.137a3.139,3.139,0,0,1-2-1.183q-.3-.314-1.592-1.907l-.175-.235a5.106,5.106,0,0,0-1.428-1.416l-.289.314v3.752l-3.122.509V9.218a26.818,26.818,0,0,0-.275-4.009c-.128-.872-.244-1.31-.353-1.31h-.162l-.392.083-.238-1.074,3.6-1.05q.943,2.393.942,8.027v3.228a15.549,15.549,0,0,0,3.787-7.174h3.287a17.671,17.671,0,0,1-1.829,3.076q-1.211,1.626-3.035,3.8" transform="translate(-66.112 -1.168)" fill="#fff" fill-rule="evenodd"/>
    </g>
  </g>
</svg>
