<svg xmlns="http://www.w3.org/2000/svg" xmlns:xlink="http://www.w3.org/1999/xlink" width="58.995" height="58.995" viewBox="0 0 58.995 58.995">
  <defs>
    <clipPath id="clip-path">
      <rect id="Rectangle_44" data-name="Rectangle 44" width="58.995" height="58.995" transform="translate(0 0)" fill="#a8abaf"/>
    </clipPath>
  </defs>
  <g id="Group_15" data-name="Group 15" transform="translate(0 0)">
    <g id="Group_14" data-name="Group 14" clip-path="url(#clip-path)">
      <path id="Path_5" data-name="Path 5" d="M29.821.2l6.231,12.848a.359.359,0,0,0,.441.183L49.984,8.555a.359.359,0,0,1,.457.457L45.762,22.5a.36.36,0,0,0,.182.441l12.849,6.231a.359.359,0,0,1,0,.646L45.944,36.052a.36.36,0,0,0-.182.441l4.679,13.491a.359.359,0,0,1-.457.457L36.493,45.762a.359.359,0,0,0-.441.183L29.821,58.793a.36.36,0,0,1-.647,0l-6.23-12.848a.359.359,0,0,0-.441-.183L9.012,50.441a.359.359,0,0,1-.458-.457l4.68-13.491a.36.36,0,0,0-.183-.441L.2,29.821a.359.359,0,0,1,0-.646l12.848-6.231a.36.36,0,0,0,.183-.441L8.554,9.012a.359.359,0,0,1,.458-.457L22.5,13.234a.359.359,0,0,0,.441-.183L29.174.2a.36.36,0,0,1,.647,0" fill="#a8abaf"/>
    </g>
  </g>
</svg>
