<?xml version="1.0" encoding="UTF-8"?>
<svg xmlns="http://www.w3.org/2000/svg" width="303" height="80" viewBox="0 0 303 80" fill="none">
  <path d="M284.02 50.7191C282.385 50.7207 280.757 50.5086 279.177 50.0881C277.64 49.6865 276.169 49.0683 274.807 48.252C273.473 47.4554 272.248 46.4881 271.164 45.3747C270.071 44.2393 269.131 42.9667 268.367 41.5889C266.773 38.7164 265.959 35.4776 266.005 32.1937C265.998 30.5116 266.2 28.8352 266.605 27.2026C267.203 24.8797 268.261 22.6999 269.715 20.7916C271.169 18.8833 272.991 17.2851 275.072 16.0912C276.473 15.279 277.98 14.6652 279.549 14.2677C282.792 13.4504 286.188 13.4504 289.431 14.2677C290.997 14.6635 292.5 15.2774 293.895 16.0912C298.069 18.5296 301.103 22.5238 302.331 27.1963C302.742 28.8221 302.954 30.4917 302.962 32.1684V46.2265C302.966 46.7753 302.863 47.3197 302.659 47.8292C302.449 48.3489 302.131 48.8178 301.725 49.2047C301.332 49.5832 300.866 49.8774 300.355 50.0692C299.335 50.4411 298.217 50.4411 297.197 50.0692C296.687 49.8774 296.22 49.5832 295.827 49.2047C295.418 48.8211 295.098 48.3513 294.893 47.8292C294.794 47.585 294.719 47.3313 294.672 47.072C294.052 47.5547 293.4 47.9953 292.721 48.3908C290.065 49.9114 287.049 50.6895 283.988 50.6434L284.02 50.7191ZM284.462 42.7625C285.413 42.7695 286.361 42.6571 287.284 42.4281C288.14 42.2025 288.961 41.8584 289.721 41.4059C290.475 40.9642 291.165 40.423 291.774 39.7969C292.392 39.1502 292.924 38.4272 293.358 37.6453C293.809 36.8408 294.149 35.9791 294.369 35.0835C294.601 34.1294 294.716 33.1504 294.71 32.1684C294.717 31.1718 294.602 30.178 294.369 29.2092C294.153 28.3262 293.818 27.4769 293.371 26.6853C292.938 25.9043 292.406 25.1831 291.786 24.5399C291.172 23.908 290.478 23.3586 289.721 22.9057C288.966 22.446 288.147 22.0995 287.29 21.8772C286.371 21.6381 285.424 21.5214 284.474 21.5302C282.643 21.5024 280.838 21.9782 279.259 22.9057C278.49 23.3617 277.783 23.9152 277.156 24.5526C276.525 25.1951 275.98 25.9161 275.533 26.6979C275.08 27.4885 274.738 28.3378 274.517 29.2218C274.278 30.1877 274.161 31.1798 274.17 32.1747C274.141 34.0845 274.613 35.9685 275.54 37.639C275.985 38.4218 276.528 39.1449 277.156 39.7906C277.775 40.4223 278.475 40.9678 279.24 41.4122C280.006 41.8638 280.83 42.2077 281.69 42.4344C282.603 42.6868 283.545 42.8225 284.493 42.8382L284.462 42.7625ZM244.682 27.1143L258.472 14.6589C258.843 14.313 259.27 14.0334 259.735 13.8323C260.224 13.627 260.752 13.5322 261.282 13.5547C261.818 13.5698 262.343 13.708 262.817 13.9585C263.264 14.1981 263.666 14.5141 264.004 14.8923C264.357 15.259 264.642 15.6865 264.843 16.1543C265.045 16.6461 265.14 17.1752 265.121 17.7065C265.104 18.2491 264.961 18.7803 264.704 19.2587C264.459 19.7104 264.129 20.111 263.732 20.4386L253.074 30.0547L264.439 44.0308C264.76 44.4043 265.012 44.8315 265.184 45.2927C265.36 45.7816 265.431 46.3017 265.393 46.8197C265.349 47.3641 265.186 47.8922 264.913 48.3656C264.647 48.8164 264.306 49.2178 263.903 49.5518C263.499 49.9005 263.034 50.1721 262.532 50.3531C262.014 50.5308 261.464 50.594 260.919 50.5385C260.373 50.4829 259.847 50.3099 259.375 50.0313C258.94 49.7586 258.557 49.4103 258.245 49.0028L247.151 35.3864L244.695 37.6011V46.1698C244.698 46.708 244.604 47.2423 244.417 47.7472C244.22 48.2595 243.917 48.7242 243.527 49.1101C243.136 49.4982 242.67 49.8012 242.156 49.9998C241.137 50.3717 240.019 50.3717 238.999 49.9998C238.483 49.8034 238.014 49.5003 237.623 49.1101C237.231 48.7206 236.927 48.2515 236.733 47.7346C236.541 47.2309 236.444 46.696 236.448 46.1571V4.11527C236.444 3.57841 236.54 3.04547 236.733 2.54414C236.924 2.02563 237.228 1.55591 237.623 1.16861C238.012 0.776323 238.482 0.472821 238.999 0.278937C240.019 -0.0929791 241.137 -0.0929791 242.156 0.278937C242.671 0.475199 243.138 0.778451 243.527 1.16861C243.921 1.55736 244.227 2.02653 244.423 2.54414C244.611 3.04665 244.705 3.57905 244.701 4.11527L244.682 27.1143ZM195.93 50.3721C194.264 50.6745 192.568 50.772 190.879 50.6623C189.267 50.5564 187.678 50.2295 186.156 49.6906C184.671 49.1687 183.265 48.4469 181.976 47.5453C180.692 46.6337 179.536 45.5534 178.541 44.3336C177.515 43.0813 176.666 41.6952 176.015 40.2134C175.338 38.6628 174.852 37.0355 174.569 35.3675C173.93 32.1242 174.115 28.7726 175.106 25.6189C176.047 22.694 177.761 20.0777 180.069 18.0472C181.244 17.0228 182.56 16.1728 183.977 15.5233C185.456 14.8491 187.016 14.3697 188.618 14.0973C190.181 13.8091 191.775 13.7243 193.36 13.8449C194.876 13.96 196.365 14.3003 197.78 14.8545C199.153 15.3863 200.444 16.1108 201.613 17.0061C202.793 17.9096 203.842 18.9712 204.732 20.161C205.658 21.3942 206.425 22.738 207.018 24.1614C207.629 25.6613 208.078 27.2224 208.356 28.8179C208.451 29.331 208.451 29.8571 208.356 30.3701C208.256 30.8985 208.04 31.3982 207.725 31.834C207.424 32.2866 207.027 32.6678 206.563 32.9508C206.117 33.2034 205.63 33.3764 205.124 33.4619L183.491 37.2478C183.83 37.9706 184.254 38.6506 184.754 39.2732C185.312 39.9643 185.962 40.5757 186.686 41.0904C187.403 41.6121 188.187 42.0364 189.016 42.3524C189.859 42.6606 190.741 42.8496 191.636 42.9139C192.622 42.9796 193.613 42.9245 194.585 42.7499C195.195 42.6407 195.794 42.4824 196.378 42.2766C196.993 42.0509 197.588 41.7766 198.159 41.4564C198.699 41.1673 199.215 40.8338 199.7 40.4594C200.083 40.162 200.432 39.8235 200.742 39.4499L200.779 39.4057C201.085 39.0503 201.445 38.7457 201.846 38.5034C202.254 38.2623 202.697 38.0877 203.16 37.986C203.621 37.8887 204.094 37.8695 204.562 37.9292C205.038 37.9891 205.499 38.139 205.919 38.3709L206.033 38.434C206.487 38.7166 206.886 39.0777 207.214 39.5004C207.557 39.9386 207.795 40.4504 207.908 40.9958C208.031 41.5465 208.013 42.1192 207.858 42.6615C207.708 43.1925 207.443 43.6838 207.081 44.1002C206.422 44.8866 205.686 45.6052 204.884 46.2455C204.015 46.948 203.092 47.5809 202.124 48.1384C201.143 48.7112 200.117 49.2029 199.056 49.6086C198.058 49.9793 197.029 50.2601 195.981 50.4478L195.93 50.3721ZM182.38 29.8401L199.535 26.8304C199.27 26.2725 198.958 25.7384 198.601 25.234C198.127 24.5711 197.569 23.9729 196.94 23.4547C196.337 22.9712 195.67 22.5741 194.958 22.2747C194.235 21.9756 193.47 21.7883 192.691 21.7195C190.878 21.6011 189.064 21.926 187.406 22.6659C186.648 23.0176 185.948 23.4813 185.328 24.0415C184.713 24.5941 184.179 25.2315 183.744 25.9344C183.295 26.6617 182.949 27.4472 182.714 28.269C182.561 28.783 182.449 29.3084 182.38 29.8401ZM168.994 50.4225C168.041 50.4257 167.094 50.2853 166.184 50.0061C165.282 49.7178 164.43 49.2922 163.658 48.7441C162.886 48.2134 162.193 47.5761 161.6 46.8512C160.995 46.0898 160.49 45.2544 160.097 44.3652C159.681 43.4318 159.373 42.4537 159.181 41.4501C158.981 40.3892 158.882 39.3117 158.885 38.2321V4.11527C158.881 3.57905 158.975 3.04665 159.162 2.54414C159.359 2.02806 159.662 1.55932 160.053 1.16861C160.445 0.779772 160.914 0.476778 161.429 0.278937C162.449 -0.0913571 163.567 -0.0913571 164.586 0.278937C165.1 0.476891 165.567 0.779926 165.956 1.16861C166.351 1.55591 166.655 2.02563 166.847 2.54414C167.039 3.04547 167.135 3.57841 167.131 4.11527V38.2195C167.123 38.8562 167.191 39.4917 167.333 40.1124C167.441 40.5726 167.625 41.0118 167.876 41.4122C168.028 41.661 168.23 41.8758 168.47 42.0432C168.63 42.1299 168.811 42.1734 168.994 42.1694H170.49C171.022 42.1667 171.549 42.2741 172.037 42.4849C172.525 42.7054 172.957 43.0333 173.3 43.4439C173.638 43.8408 173.895 44.2994 174.058 44.7942C174.214 45.275 174.293 45.7777 174.291 46.2833C174.3 46.8667 174.177 47.4444 173.932 47.9741C173.687 48.5037 173.327 48.9717 172.877 49.3436C172.441 49.7085 171.936 49.983 171.393 50.1512C170.861 50.3232 170.304 50.4084 169.745 50.4036L168.994 50.4225ZM136.677 50.7191C133.41 50.7616 130.19 49.9317 127.351 48.3151C125.288 47.1315 123.478 45.5516 122.028 43.6662C120.578 41.7808 119.516 39.6273 118.903 37.3298C118.492 35.7341 118.28 34.0937 118.272 32.446V4.18467C118.269 3.63878 118.36 3.09652 118.543 2.582C118.736 2.0533 119.042 1.57307 119.44 1.17492C119.841 0.778277 120.324 0.472693 120.854 0.278937C121.368 0.0934163 121.911 0.00152668 122.458 0.00762256C122.995 0.000975142 123.528 0.0951427 124.03 0.285244C124.548 0.479127 125.017 0.782629 125.407 1.17492C125.797 1.56979 126.103 2.04074 126.304 2.5585C126.505 3.07626 126.597 3.62978 126.575 4.18467V17.2332C127.371 16.6282 128.216 16.0901 129.1 15.6243C130.329 14.9825 131.634 14.4971 132.984 14.1793C135.978 13.5043 139.091 13.5519 142.063 14.3181C143.6 14.7197 145.071 15.338 146.433 16.1543C147.767 16.9509 148.992 17.9181 150.076 19.0315C151.169 20.1669 152.109 21.4396 152.873 22.8174C153.663 24.218 154.259 25.7185 154.648 27.2784C155.044 28.893 155.242 30.5501 155.235 32.2126C155.235 33.8961 155.023 35.573 154.604 37.2036C154.205 38.7767 153.588 40.2866 152.772 41.6898C151.191 44.4478 148.902 46.7348 146.142 48.3151C144.737 49.1335 143.224 49.7515 141.647 50.1512C140.02 50.5445 138.351 50.7353 136.677 50.7191ZM136.677 42.8382C137.629 42.8465 138.578 42.7298 139.5 42.4912C140.363 42.2657 141.19 41.9194 141.956 41.4627C142.721 41.0083 143.423 40.4569 144.046 39.8221C144.668 39.18 145.204 38.4612 145.644 37.6831C146.09 36.89 146.43 36.0413 146.654 35.1592C146.882 34.1895 146.995 33.1962 146.989 32.2C146.994 31.2184 146.881 30.2398 146.654 29.2849C146.432 28.3902 146.092 27.5288 145.644 26.7231C145.209 25.9416 144.674 25.2204 144.052 24.5778C143.438 23.9487 142.741 23.4053 141.981 22.9625C141.211 22.5076 140.379 22.1635 139.513 21.9403C138.587 21.7114 137.637 21.5991 136.684 21.6059C135.745 21.6002 134.81 21.7125 133.899 21.9403C132.187 22.3962 130.629 23.3052 129.391 24.5715C128.777 25.2121 128.25 25.9314 127.825 26.7105C126.953 28.4137 126.499 30.2995 126.499 32.2126C126.499 34.1257 126.953 36.0114 127.825 37.7147C128.678 39.2799 129.936 40.5874 131.468 41.5005C132.232 41.9573 133.057 42.3036 133.918 42.529C134.82 42.7523 135.748 42.8563 136.677 42.8382ZM94.4859 50.7191C92.8509 50.7207 91.2227 50.5086 89.6429 50.0881C88.1081 49.6877 86.6388 49.0693 85.2797 48.252C83.9432 47.4555 82.7163 46.4883 81.6301 45.3747C80.5393 44.2377 79.5993 42.9653 78.8329 41.5889C77.2546 38.7296 76.4473 35.5093 76.4903 32.2441C76.4904 30.5606 76.7026 28.8837 77.1218 27.2531C77.5235 25.6809 78.1397 24.1714 78.9529 22.7669C79.7441 21.3966 80.7098 20.1347 81.8259 19.0126C82.9569 17.8933 84.2307 16.928 85.6144 16.1417C87.0154 15.3305 88.5219 14.7168 90.0912 14.3181C93.3366 13.5021 96.7338 13.5021 99.9792 14.3181C101.545 14.7163 103.047 15.33 104.443 16.1417C105.806 16.9337 107.058 17.9011 108.169 19.0189C109.282 20.1394 110.246 21.3992 111.035 22.7669C111.847 24.1707 112.465 25.6776 112.873 27.2468C113.287 28.872 113.499 30.5419 113.504 32.2189V46.277C113.508 46.8258 113.405 47.3701 113.201 47.8797C112.996 48.4017 112.676 48.8716 112.267 49.2552C111.874 49.6323 111.407 49.9244 110.897 50.1133C110.394 50.3038 109.861 50.4 109.324 50.3973C108.786 50.399 108.251 50.305 107.746 50.1197C107.236 49.9254 106.77 49.6315 106.376 49.2552C105.966 48.8716 105.647 48.4017 105.441 47.8797C105.344 47.6348 105.27 47.3813 105.22 47.1225C102.177 49.507 98.4029 50.7685 94.5364 50.6939L94.4859 50.7191ZM94.9657 42.8382C95.9168 42.8447 96.865 42.7323 97.7882 42.5038C98.6419 42.277 99.46 41.933 100.219 41.4816C100.972 41.0399 101.663 40.4987 102.271 39.8726C102.893 39.2278 103.428 38.5045 103.862 37.721C104.311 36.9153 104.65 36.0539 104.873 35.1592C105.1 34.2043 105.213 33.2257 105.207 32.2441C105.214 31.248 105.101 30.2546 104.873 29.2849C104.652 28.4025 104.315 27.5537 103.869 26.761C103.432 25.9812 102.897 25.2603 102.278 24.6157C101.663 23.9837 100.969 23.4343 100.213 22.9814C99.4575 22.5255 98.6411 22.1792 97.7882 21.9529C96.8687 21.7146 95.9219 21.5979 94.9721 21.6059C93.1381 21.5773 91.3317 22.0531 89.7502 22.9814C88.201 23.8952 86.9204 25.201 86.0374 26.7673C85.5895 27.5605 85.2477 28.409 85.0208 29.2912C84.7853 30.2577 84.6686 31.2494 84.6736 32.2441C84.6699 33.2243 84.7865 34.2012 85.0208 35.1529C85.4761 36.9246 86.3858 38.547 87.6602 39.86C88.2786 40.4917 88.9795 41.0372 89.7439 41.4816C90.5097 41.9332 91.334 42.2771 92.1938 42.5038C93.1003 42.73 94.0314 42.8424 94.9657 42.8382ZM70.2203 50.3531C68.5115 50.3843 66.8148 50.0605 65.2377 49.4023C63.6606 48.7441 62.2374 47.7658 61.0584 46.5294C60.2865 45.7214 59.6241 44.8156 59.0884 43.8352C58.5254 42.8215 58.1007 41.7371 57.8255 40.6109C57.5447 39.4391 57.4048 38.2381 57.4088 37.0332V31.2472C58.6205 32.0993 60.066 32.5566 61.5477 32.5566C63.0294 32.5566 64.475 32.0993 65.6867 31.2472V37.0143C65.6728 37.7388 65.7839 38.4602 66.0151 39.147C66.2289 39.7337 66.5573 40.272 66.9811 40.7308C67.3699 41.1601 67.8456 41.5021 68.3766 41.734C68.9566 41.9649 69.5772 42.0765 70.2014 42.0621H71.8115C72.3515 42.0606 72.8862 42.1679 73.3837 42.3776C73.8942 42.5876 74.3499 42.9113 74.716 43.3241C75.0798 43.7188 75.361 44.1822 75.5432 44.687C75.7149 45.1798 75.8003 45.6985 75.7958 46.2202C75.8105 46.7922 75.6974 47.3603 75.4648 47.8832C75.2321 48.406 74.8857 48.8704 74.4508 49.2426C74.0346 49.6016 73.5549 49.8797 73.0365 50.0629C72.5272 50.2412 71.9912 50.3308 71.4516 50.3279L70.2203 50.3531ZM227.236 50.3531C225.527 50.3843 223.83 50.0605 222.253 49.4023C220.676 48.7441 219.253 47.7658 218.074 46.5294C216.499 44.8744 215.39 42.8324 214.86 40.6109C214.58 39.4434 214.44 38.2465 214.443 37.0459V20.8298H212.429C211.927 20.8322 211.428 20.7424 210.958 20.5648C210.487 20.3791 210.058 20.1025 209.695 19.7508C209.322 19.394 209.025 18.9645 208.824 18.4889C208.621 18.0187 208.518 17.5117 208.521 16.9998C208.519 16.4852 208.618 15.9752 208.811 15.4981C209.01 15.0196 209.309 14.5893 209.689 14.2361C210.052 13.8844 210.481 13.6078 210.952 13.4222C211.423 13.2497 211.921 13.1621 212.423 13.1634H214.437V7.97683C214.434 7.44217 214.531 6.91161 214.721 6.41202C214.908 5.90181 215.198 5.43566 215.574 5.0428C215.957 4.63625 216.425 4.31765 216.944 4.10896C217.961 3.7241 219.084 3.7241 220.101 4.10896C220.619 4.31123 221.09 4.61843 221.484 5.01125C221.875 5.40219 222.181 5.87076 222.38 6.38678C222.579 6.89321 222.68 7.4328 222.677 7.97683V13.1634H227.552C228.051 13.162 228.548 13.2496 229.017 13.4222C229.502 13.6081 229.946 13.89 230.32 14.251C230.694 14.6121 230.992 15.0448 231.195 15.5233C231.386 16.0008 231.482 16.5108 231.479 17.025C231.481 17.5369 231.378 18.0437 231.176 18.5141C230.98 18.9927 230.683 19.4232 230.305 19.7761C229.941 20.1277 229.512 20.4043 229.042 20.59C228.574 20.7676 228.077 20.8574 227.577 20.855H222.702V37.0585C222.688 37.7829 222.799 38.5044 223.031 39.1912C223.242 39.7789 223.571 40.3177 223.997 40.7749C224.386 41.2043 224.861 41.5463 225.392 41.7782C225.972 42.0086 226.593 42.1202 227.217 42.1063H228.827C229.367 42.1047 229.902 42.212 230.399 42.4218C230.91 42.6318 231.365 42.9555 231.732 43.3682C232.097 43.761 232.376 44.2251 232.553 44.7311C232.73 45.2249 232.817 45.7462 232.811 46.2707C232.815 46.8368 232.701 47.3975 232.477 47.9176C232.246 48.4449 231.901 48.9146 231.466 49.2931C231.051 49.6534 230.571 49.9317 230.052 50.1133C229.543 50.2916 229.007 50.3813 228.467 50.3784L227.236 50.3531Z" fill="#2B2D59"></path>
  <path d="M48.708 16.6212C48.7097 15.5206 49.1479 14.4655 49.9268 13.6873C50.7056 12.909 51.7614 12.4711 52.8628 12.4694H57.4343V7.90112C57.4761 6.82883 57.9318 5.81438 58.7058 5.07051C59.4798 4.32664 60.512 3.91113 61.5859 3.91113C62.6597 3.91113 63.6919 4.32664 64.4659 5.07051C65.2399 5.81438 65.6956 6.82883 65.7375 7.90112V12.4694H70.3153C71.136 12.4696 71.9382 12.713 72.6205 13.1689C73.3027 13.6248 73.8343 14.2727 74.1479 15.0307C74.4616 15.7886 74.5432 16.6224 74.3825 17.4267C74.2218 18.231 73.8259 18.9695 73.2451 19.5489C72.8619 19.9342 72.4065 20.2401 71.9048 20.449C71.4031 20.658 70.8651 20.766 70.3216 20.7667H65.7438V25.335C65.7412 26.4336 65.303 27.4863 64.5251 28.2627C63.9438 28.8405 63.2043 29.2334 62.3999 29.3921C61.5955 29.5508 60.7621 29.4681 60.0046 29.1544C59.2472 28.8407 58.5995 28.31 58.1433 27.6292C57.687 26.9485 57.4425 26.148 57.4406 25.3287V20.773H52.8438C51.7457 20.7664 50.6948 20.3262 49.92 19.5485C49.1453 18.7708 48.7097 17.7186 48.708 16.6212Z" fill="#21A73F"></path>
  <path d="M138.711 71.5035C138.732 72.9154 138.382 74.3081 137.694 75.5417C137.05 76.716 136.09 77.6865 134.922 78.3433C133.725 78.9997 132.38 79.3406 131.014 79.3339C129.649 79.3477 128.304 79.0064 127.111 78.3433C125.942 77.6884 124.982 76.7174 124.34 75.5417C123.652 74.3081 123.301 72.9154 123.323 71.5035C123.303 70.0818 123.653 68.6793 124.34 67.4337C124.998 66.2703 125.955 65.3033 127.111 64.6322C128.304 63.9691 129.649 63.6276 131.014 63.6415C132.38 63.6348 133.725 63.9757 134.922 64.6322C136.077 65.3052 137.034 66.2718 137.694 67.4337C138.38 68.6793 138.731 70.0818 138.711 71.5035ZM135.314 71.5035C135.324 70.6402 135.132 69.7864 134.752 69.0111C134.385 68.3302 133.848 67.7561 133.192 67.3453C132.536 66.948 131.781 66.7425 131.014 66.7522C130.256 66.7433 129.512 66.949 128.867 67.3453C128.205 67.7488 127.666 68.3247 127.307 69.0111C126.905 69.7796 126.701 70.6363 126.714 71.5035C126.698 72.3589 126.902 73.2042 127.307 73.958C127.666 74.6462 128.205 75.2241 128.867 75.63C129.513 76.0236 130.257 76.229 131.014 76.2232C131.781 76.2299 132.535 76.0246 133.192 75.63C133.848 75.2168 134.385 74.6407 134.752 73.958C135.135 73.1971 135.327 72.355 135.314 71.5035Z" fill="#21A73F"></path>
  <path d="M148.959 63.6414C150.882 63.6414 152.213 64.2071 152.949 65.3387C153.759 66.7867 154.142 68.4338 154.054 70.0899V77.3083C154.06 77.533 154.02 77.7565 153.938 77.9656C153.855 78.1748 153.732 78.3653 153.574 78.5261C153.416 78.6882 153.226 78.8171 153.017 78.9051C152.808 78.993 152.583 79.0383 152.356 79.0383C152.129 79.0383 151.904 78.993 151.695 78.9051C151.485 78.8171 151.296 78.6882 151.137 78.5261C150.98 78.3653 150.856 78.1748 150.774 77.9656C150.692 77.7565 150.652 77.533 150.657 77.3083V70.0899C150.708 69.224 150.487 68.364 150.026 67.6291C149.752 67.313 149.406 67.068 149.016 66.9152C148.627 66.7624 148.206 66.7064 147.791 66.7521C147.321 66.7243 146.851 66.7929 146.409 66.9535C145.967 67.1141 145.563 67.3633 145.221 67.6859C144.912 68.0038 144.67 68.3804 144.51 68.7933C144.349 69.2062 144.273 69.6471 144.286 70.0899V77.3083C144.292 77.533 144.252 77.7565 144.169 77.9656C144.087 78.1748 143.964 78.3653 143.806 78.5261C143.648 78.6882 143.458 78.8171 143.249 78.9051C143.039 78.993 142.815 79.0383 142.588 79.0383C142.361 79.0383 142.136 78.993 141.927 78.9051C141.717 78.8171 141.528 78.6882 141.369 78.5261C141.213 78.3648 141.091 78.174 141.009 77.9649C140.928 77.7558 140.889 77.5326 140.895 77.3083V65.6352C140.887 65.1685 141.059 64.7164 141.375 64.3733C141.706 64.065 142.142 63.8936 142.594 63.8936C143.046 63.8936 143.482 64.065 143.813 64.3733C144.129 64.7164 144.301 65.1685 144.292 65.6352V66.1148C144.838 65.4042 145.521 64.8099 146.3 64.367C147.105 63.8905 148.023 63.6398 148.959 63.6414Z" fill="#21A73F"></path>
  <path d="M160.741 77.3083C160.746 77.5331 160.707 77.7566 160.624 77.9657C160.542 78.1748 160.418 78.3654 160.261 78.5261C160.097 78.6935 159.9 78.8253 159.683 78.9132C159.466 79.0012 159.233 79.0434 158.998 79.0372C158.775 79.0434 158.553 79.001 158.348 78.9127C158.143 78.8244 157.96 78.6925 157.811 78.5261C157.652 78.3666 157.527 78.1764 157.443 77.967C157.36 77.7577 157.32 77.5336 157.325 77.3083V59.8556C157.321 59.6276 157.363 59.4012 157.448 59.1898C157.534 58.9785 157.661 58.7866 157.823 58.6257C157.984 58.4648 158.177 58.3382 158.389 58.2535C158.6 58.1689 158.827 58.1279 159.055 58.133C159.275 58.1283 159.494 58.1684 159.698 58.2508C159.902 58.3333 160.087 58.4563 160.242 58.6125C160.559 58.9557 160.731 59.4078 160.722 59.8745L160.741 77.3083Z" fill="#21A73F"></path>
  <path d="M165.521 62.0893C165.047 62.1294 164.573 62.0213 164.164 61.7801C164.018 61.6378 163.907 61.4646 163.838 61.2734C163.769 61.0823 163.745 60.878 163.766 60.6759V60.1396C163.741 59.935 163.766 59.7274 163.84 59.5349C163.914 59.3424 164.033 59.1709 164.189 59.0354C164.601 58.8022 165.073 58.6948 165.546 58.7262C166.03 58.6869 166.514 58.7947 166.935 59.0354C167.081 59.1771 167.193 59.3502 167.262 59.5415C167.331 59.7329 167.355 59.9374 167.333 60.1396V60.6759C167.354 60.878 167.33 61.0823 167.261 61.2734C167.192 61.4646 167.081 61.6378 166.935 61.7801C166.503 62.0162 166.012 62.1234 165.521 62.0893ZM167.232 77.3084C167.248 77.5382 167.216 77.7687 167.139 77.9858C167.062 78.2029 166.941 78.4018 166.784 78.5703C166.626 78.7323 166.437 78.8611 166.228 78.9489C166.019 79.0368 165.795 79.0821 165.568 79.0821C165.342 79.0821 165.118 79.0368 164.909 78.9489C164.7 78.8611 164.511 78.7323 164.353 78.5703C164.195 78.4105 164.07 78.2201 163.988 78.0107C163.905 77.8014 163.866 77.5775 163.873 77.3526V65.6795C163.862 65.2123 164.034 64.7593 164.353 64.4176C164.683 64.1097 165.117 63.9385 165.568 63.9385C166.02 63.9385 166.454 64.1097 166.784 64.4176C167.101 64.7607 167.273 65.2128 167.264 65.6795L167.232 77.3084Z" fill="#21A73F"></path>
  <path d="M178.149 63.6414C180.043 63.6414 181.401 64.2093 182.14 65.3387C182.947 66.7874 183.33 68.434 183.245 70.09V77.3083C183.25 77.5336 183.21 77.7577 183.127 77.967C183.043 78.1763 182.918 78.3665 182.759 78.5261C182.6 78.6881 182.411 78.8168 182.203 78.9047C181.994 78.9926 181.77 79.0379 181.543 79.0379C181.317 79.0379 181.092 78.9926 180.884 78.9047C180.675 78.8168 180.486 78.6881 180.328 78.5261C180.17 78.3654 180.047 78.1748 179.964 77.9657C179.882 77.7565 179.842 77.533 179.848 77.3083V70.09C179.898 69.2241 179.677 68.364 179.216 67.6292C178.943 67.313 178.596 67.068 178.207 66.9152C177.818 66.7624 177.397 66.7065 176.981 66.7521C176.511 66.7243 176.039 66.7927 175.596 66.9533C175.153 67.1139 174.748 67.3632 174.405 67.686C174.098 68.005 173.858 68.3819 173.699 68.7947C173.539 69.2074 173.464 69.6477 173.477 70.09V77.3083C173.482 77.5336 173.442 77.7577 173.358 77.967C173.275 78.1763 173.15 78.3665 172.99 78.5261C172.832 78.6881 172.643 78.8168 172.434 78.9047C172.226 78.9926 172.001 79.0379 171.775 79.0379C171.548 79.0379 171.324 78.9926 171.115 78.9047C170.907 78.8168 170.718 78.6881 170.559 78.5261C170.402 78.3654 170.279 78.1748 170.196 77.9657C170.114 77.7565 170.074 77.533 170.08 77.3083V65.6353C170.071 65.1685 170.243 64.7164 170.559 64.3733C170.889 64.0655 171.324 63.8943 171.775 63.8943C172.226 63.8943 172.661 64.0655 172.99 64.3733C173.312 64.714 173.486 65.1672 173.477 65.6353V66.1148C174.023 65.4042 174.705 64.8099 175.485 64.367C176.291 63.8885 177.212 63.6377 178.149 63.6414Z" fill="#21A73F"></path>
  <path d="M199.82 71.131C199.812 71.3423 199.761 71.5497 199.668 71.7399C199.576 71.9301 199.445 72.0988 199.283 72.2352C198.951 72.5145 198.53 72.6646 198.096 72.658H188.757C188.933 73.6891 189.489 74.6167 190.317 75.2576C191.089 75.8902 192.059 76.2319 193.057 76.223C193.669 76.2387 194.28 76.1621 194.869 75.9958C195.235 75.8858 195.587 75.7333 195.917 75.5415C196.091 75.4471 196.26 75.3439 196.423 75.2323C196.72 75.0726 197.051 74.9861 197.389 74.98C197.578 74.9775 197.766 75.0137 197.941 75.0864C198.115 75.1591 198.274 75.2667 198.405 75.4027C198.539 75.5305 198.646 75.6842 198.719 75.8545C198.792 76.0248 198.829 76.2082 198.828 76.3933C198.816 76.6696 198.737 76.939 198.6 77.1792C198.463 77.4194 198.271 77.6237 198.039 77.7752C197.395 78.2532 196.679 78.6259 195.917 78.8794C195.053 79.1821 194.144 79.3358 193.228 79.3337C191.789 79.365 190.366 79.0238 189.098 78.3431C187.94 77.7078 186.987 76.7557 186.351 75.5983C185.698 74.4039 185.367 73.0599 185.392 71.6989C185.36 70.2136 185.71 68.745 186.408 67.4335C187.036 66.2677 187.964 65.2915 189.098 64.6068C190.174 63.9646 191.406 63.6307 192.659 63.6414C193.91 63.6422 195.135 63.9943 196.195 64.6572C197.296 65.3283 198.204 66.2742 198.828 67.402C199.477 68.5378 199.819 69.823 199.82 71.131ZM192.672 66.7521C190.494 66.7521 189.193 67.7679 188.801 69.8312H196.208V69.6356C196.166 69.2346 196.042 68.8465 195.844 68.4958C195.645 68.1451 195.375 67.8392 195.052 67.5976C194.381 67.0482 193.54 66.7493 192.672 66.7521Z" fill="#21A73F"></path>
  <path d="M213.578 77.3084C213.584 77.5331 213.544 77.7567 213.461 77.9658C213.379 78.1749 213.256 78.3655 213.098 78.5262C212.934 78.6933 212.737 78.8249 212.52 78.9128C212.303 79.0007 212.07 79.0431 211.836 79.0373C211.612 79.0431 211.391 79.0004 211.186 78.9122C210.981 78.8239 210.797 78.6922 210.648 78.5262C210.491 78.3655 210.368 78.1749 210.285 77.9658C210.203 77.7567 210.163 77.5331 210.169 77.3084V59.8557C210.162 59.6215 210.205 59.3885 210.293 59.1714C210.381 58.9543 210.513 58.7576 210.68 58.5937C210.84 58.4371 211.03 58.3139 211.238 58.2316C211.446 58.1492 211.668 58.1093 211.892 58.1142C212.113 58.1093 212.333 58.1494 212.538 58.2318C212.743 58.3142 212.93 58.4373 213.086 58.5937C213.402 58.9368 213.574 59.3889 213.566 59.8557L213.578 77.3084Z" fill="#21A73F"></path>
  <path d="M230.166 71.1311C230.162 71.3429 230.111 71.5512 230.019 71.7418C229.926 71.9324 229.793 72.1007 229.629 72.2353C229.298 72.5156 228.876 72.6659 228.442 72.658H219.11C219.284 73.6884 219.838 74.6161 220.663 75.2577C221.438 75.8903 222.41 76.2318 223.41 76.2231C224.02 76.2388 224.629 76.1622 225.216 75.9959C225.583 75.8884 225.935 75.7358 226.264 75.5416C226.517 75.4028 226.687 75.2892 226.775 75.2324C227.071 75.0727 227.4 74.9862 227.735 74.98C228.112 74.9831 228.474 75.132 228.743 75.3956C229.013 75.6591 229.17 76.0167 229.181 76.3934C229.167 76.6702 229.088 76.9397 228.95 77.1799C228.811 77.4201 228.618 77.6241 228.386 77.7752C227.743 78.256 227.027 78.629 226.264 78.8795C225.402 79.1821 224.494 79.3357 223.58 79.3338C222.14 79.3651 220.715 79.0238 219.445 78.3431C218.288 77.7086 217.337 76.7561 216.704 75.5984C216.051 74.4039 215.72 73.06 215.745 71.699C215.71 70.2134 216.06 68.744 216.761 67.4336C217.386 66.2682 218.313 65.2919 219.445 64.6068C220.523 63.9639 221.757 63.6299 223.012 63.6414C224.263 63.643 225.488 63.9949 226.548 64.6573C227.651 65.3412 228.562 66.2942 229.195 67.4267C229.828 68.5592 230.162 69.8339 230.166 71.1311ZM223.012 66.7521C220.834 66.7521 219.533 67.768 219.135 69.8313H226.548V69.6357C226.504 69.2347 226.378 68.847 226.178 68.4964C225.979 68.1459 225.709 67.84 225.386 67.5976C224.718 67.0482 223.878 66.7492 223.012 66.7521Z" fill="#21A73F"></path>
  <path d="M244.916 76.0781C245.087 76.2408 245.223 76.4366 245.315 76.6536C245.407 76.8707 245.454 77.1043 245.453 77.3401C245.461 77.5658 245.417 77.7905 245.324 77.9964C245.231 78.2023 245.091 78.3837 244.916 78.5263C244.591 78.8237 244.169 78.994 243.729 79.0058C243.49 79.0084 243.254 78.9595 243.036 78.8626C242.818 78.7657 242.624 78.623 242.466 78.4443L237.377 73.0684L235.988 74.3303V77.3085C235.993 77.5332 235.953 77.7567 235.871 77.9659C235.788 78.175 235.665 78.3656 235.508 78.5263C235.35 78.6883 235.161 78.817 234.952 78.9049C234.743 78.9928 234.519 79.0381 234.292 79.0381C234.066 79.0381 233.842 78.9928 233.633 78.9049C233.424 78.817 233.235 78.6883 233.077 78.5263C232.918 78.3664 232.794 78.176 232.712 77.9667C232.629 77.7573 232.59 77.5334 232.597 77.3085V59.8557C232.585 59.3885 232.758 58.9355 233.077 58.5938C233.407 58.286 233.841 58.1147 234.292 58.1147C234.744 58.1147 235.178 58.286 235.508 58.5938C235.825 58.9369 235.996 59.389 235.988 59.8557V70.311L242.043 64.4619C242.204 64.2884 242.399 64.1508 242.617 64.0584C242.835 63.9659 243.069 63.9207 243.306 63.9255C243.519 63.9286 243.73 63.9755 243.924 64.0634C244.119 64.1514 244.293 64.2784 244.436 64.4366C244.603 64.5903 244.732 64.7799 244.814 64.991C244.896 65.2021 244.929 65.4291 244.91 65.6548C244.892 65.8806 244.821 66.0991 244.705 66.2936C244.589 66.4882 244.43 66.6537 244.24 66.7775L239.966 70.7085L244.916 76.0781Z" fill="#21A73F"></path>
  <path d="M260.689 75.712C260.902 75.72 261.104 75.8105 261.251 75.9644C261.414 76.2058 261.494 76.4938 261.478 76.7847C261.479 77.1023 261.403 77.4154 261.255 77.6968C261.108 77.9783 260.894 78.2196 260.632 78.4C260 78.8342 259.246 79.0553 258.479 79.031C257.986 79.0496 257.504 78.8881 257.122 78.5766C256.73 78.2758 256.426 77.8747 256.244 77.4157C255.73 77.9875 255.105 78.449 254.406 78.7722C253.707 79.1301 252.932 79.3161 252.146 79.3149C251.202 79.3433 250.266 79.1259 249.431 78.6839C248.689 78.2825 248.08 77.6756 247.676 76.9361C247.276 76.187 247.072 75.3493 247.082 74.5005C247.057 73.4925 247.353 72.5026 247.928 71.6738C248.501 70.8995 249.274 70.2954 250.163 69.926C251.065 69.5311 252.039 69.3291 253.024 69.3328C254.072 69.3115 255.107 69.5754 256.017 70.0963V69.4654C256.04 69.0963 255.985 68.7266 255.854 68.3806C255.723 68.0347 255.52 67.7205 255.259 67.4589C254.719 66.9844 254.02 66.7319 253.302 66.7522C252.673 66.7099 252.043 66.8074 251.457 67.0376C250.87 67.2678 250.342 67.625 249.911 68.0835C249.754 68.2655 249.56 68.4124 249.343 68.5146C249.125 68.6167 248.888 68.672 248.648 68.6766C248.237 68.634 247.854 68.4493 247.564 68.1544C247.275 67.8595 247.098 67.4729 247.063 67.0614C247.061 66.8198 247.107 66.5802 247.199 66.3568C247.291 66.1335 247.428 65.9311 247.6 65.7615C248.239 65.1268 248.999 64.6268 249.835 64.2914C250.969 63.8427 252.183 63.628 253.403 63.6604C254.965 63.5833 256.502 64.0767 257.728 65.0485C258.833 65.9824 259.369 67.3958 259.401 69.2887V75.4218C259.395 75.559 259.423 75.6956 259.483 75.8193C259.502 75.8647 259.534 75.904 259.574 75.9329C259.614 75.9618 259.661 75.9792 259.71 75.9833C259.848 75.9535 259.982 75.9069 260.108 75.8445C260.29 75.7587 260.488 75.7135 260.689 75.712ZM253.447 76.5071C254.212 76.5368 254.966 76.3152 255.594 75.8761C255.854 75.6996 256.065 75.4586 256.204 75.1766C256.343 74.8945 256.407 74.5811 256.389 74.2671C256.405 73.9488 256.341 73.6316 256.202 73.3448C256.063 73.058 255.854 72.811 255.594 72.6265C254.944 72.2386 254.201 72.0337 253.444 72.0337C252.687 72.0337 251.944 72.2386 251.294 72.6265C251.031 72.8105 250.819 73.0568 250.676 73.3432C250.532 73.6296 250.463 73.9471 250.473 74.2671C250.455 74.5811 250.518 74.8945 250.658 75.1766C250.797 75.4586 251.008 75.6996 251.268 75.8761C251.906 76.3193 252.671 76.541 253.447 76.5071ZM253.756 62.9663C253.533 62.9552 253.322 62.8632 253.163 62.7076C253.053 62.6348 252.967 62.5332 252.912 62.4139C252.857 62.2947 252.837 62.1626 252.853 62.0325C252.861 61.8416 252.92 61.6563 253.024 61.4961L254.659 58.6126C254.834 58.2993 255.065 58.0212 255.341 57.7923C255.592 57.5963 255.9 57.4877 256.219 57.4831C256.642 57.4567 257.059 57.5972 257.38 57.8744C257.508 58.0096 257.604 58.1713 257.662 58.348C257.72 58.5247 257.738 58.712 257.715 58.8965C257.67 59.3473 257.482 59.7718 257.178 60.108L255.032 62.4868C254.862 62.6479 254.662 62.7734 254.443 62.8558C254.223 62.9382 253.99 62.9757 253.756 62.9663Z" fill="#21A73F"></path>
  <path d="M270.969 63.6415C271.491 63.6319 272.002 63.8011 272.415 64.121C272.587 64.2571 272.726 64.4295 272.823 64.6259C272.92 64.8223 272.973 65.0378 272.977 65.2568C272.999 65.4929 272.971 65.7311 272.894 65.9553C272.816 66.1795 272.692 66.3845 272.528 66.5566C272.391 66.7021 272.224 66.8171 272.039 66.8943C271.854 66.9715 271.655 67.0091 271.455 67.0046C271.124 66.9984 270.796 66.9321 270.489 66.809C270.37 66.7624 270.247 66.7244 270.123 66.6954C269.917 66.6399 269.704 66.6123 269.491 66.6134C268.985 66.6151 268.492 66.7714 268.077 67.0614C267.595 67.4085 267.214 67.8765 266.972 68.418C266.653 69.1095 266.5 69.8655 266.524 70.6264V77.3084C266.529 77.5337 266.489 77.7578 266.405 77.9671C266.322 78.1764 266.197 78.3666 266.037 78.5262C265.879 78.6882 265.69 78.8169 265.481 78.9048C265.273 78.9927 265.048 79.038 264.822 79.038C264.595 79.038 264.371 78.9927 264.162 78.9048C263.954 78.8169 263.765 78.6882 263.606 78.5262C263.449 78.3655 263.326 78.1749 263.243 77.9658C263.161 77.7566 263.121 77.5331 263.126 77.3084V65.6354C263.118 65.1686 263.29 64.7166 263.606 64.3734C263.936 64.0656 264.371 63.8944 264.822 63.8944C265.273 63.8944 265.708 64.0656 266.037 64.3734C266.359 64.7141 266.533 65.1673 266.524 65.6354V66.0077C266.95 65.2381 267.599 64.6155 268.386 64.222C269.192 63.8365 270.075 63.638 270.969 63.6415Z" fill="#21A73F"></path>
  <path d="M287.644 71.131C287.637 71.3423 287.585 71.5497 287.493 71.7399C287.401 71.9301 287.269 72.0988 287.108 72.2352C286.774 72.5154 286.35 72.6656 285.914 72.658H276.582C276.758 73.6875 277.312 74.6144 278.135 75.2576C278.91 75.8892 279.882 76.2307 280.882 76.223C281.494 76.2387 282.105 76.1621 282.694 75.9958C283.058 75.8872 283.408 75.7346 283.736 75.5415C283.912 75.4482 284.083 75.345 284.247 75.2323C284.543 75.0733 284.872 74.9868 285.207 74.98C285.397 74.9766 285.587 75.0124 285.762 75.0851C285.938 75.1578 286.098 75.266 286.23 75.4027C286.364 75.5305 286.471 75.6842 286.544 75.8545C286.616 76.0248 286.654 76.2082 286.653 76.3933C286.64 76.6703 286.561 76.9402 286.423 77.1806C286.284 77.4209 286.091 77.6248 285.857 77.7752C285.215 78.256 284.498 78.6289 283.736 78.8794C282.874 79.1826 281.966 79.3363 281.052 79.3337C279.613 79.365 278.191 79.0238 276.923 78.3431C275.765 77.7078 274.812 76.7557 274.176 75.5983C273.523 74.4039 273.192 73.0599 273.216 71.6989C273.184 70.2136 273.534 68.745 274.233 67.4335C274.86 66.2677 275.789 65.2915 276.923 64.6068C277.999 63.9646 279.231 63.6307 280.484 63.6414C281.735 63.6422 282.96 63.9943 284.02 64.6572C285.121 65.3283 286.029 66.2742 286.653 67.402C287.302 68.5378 287.644 69.823 287.644 71.131ZM280.484 66.7521C278.306 66.7521 277.005 67.7679 276.613 69.8312H284.02V69.6356C283.979 69.2346 283.854 68.8465 283.656 68.4958C283.457 68.1451 283.187 67.8392 282.864 67.5976C282.193 67.0482 281.352 66.7493 280.484 66.7521Z" fill="#21A73F"></path>
  <path d="M297.892 63.6415C299.82 63.6415 301.15 64.2073 301.883 65.3388C302.692 66.7868 303.075 68.4339 302.988 70.0901V77.3084C303.003 77.5382 302.972 77.7688 302.894 77.9858C302.817 78.2029 302.696 78.4018 302.539 78.5704C302.381 78.7325 302.191 78.8614 301.982 78.9493C301.772 79.0373 301.548 79.0826 301.321 79.0826C301.094 79.0826 300.869 79.0373 300.66 78.9493C300.45 78.8614 300.261 78.7325 300.102 78.5704C299.945 78.4096 299.821 78.2191 299.739 78.0099C299.657 77.8008 299.617 77.5773 299.622 77.3526V70.0901C299.672 69.2242 299.452 68.3641 298.991 67.6293C298.717 67.3131 298.371 67.0681 297.981 66.9153C297.592 66.7625 297.171 66.7066 296.755 66.7522C296.286 66.7245 295.816 66.793 295.374 66.9536C294.932 67.1142 294.528 67.3635 294.186 67.6861C293.877 68.004 293.635 68.3805 293.475 68.7935C293.314 69.2064 293.238 69.6473 293.251 70.0901V77.3084C293.256 77.5331 293.217 77.7566 293.134 77.9658C293.052 78.1749 292.928 78.3655 292.771 78.5262C292.612 78.6884 292.423 78.8172 292.214 78.9052C292.004 78.9932 291.78 79.0385 291.553 79.0385C291.326 79.0385 291.101 78.9932 290.891 78.9052C290.682 78.8172 290.493 78.6884 290.334 78.5262C290.177 78.3655 290.053 78.1749 289.971 77.9658C289.888 77.7566 289.849 77.5331 289.854 77.3084V65.6354C289.845 65.1686 290.017 64.7165 290.334 64.3734C290.665 64.0652 291.1 63.8937 291.553 63.8937C292.005 63.8937 292.44 64.0652 292.771 64.3734C293.088 64.7165 293.26 65.1686 293.251 65.6354V66.1149C293.797 65.4043 294.48 64.81 295.259 64.3671C296.056 63.895 296.965 63.6444 297.892 63.6415ZM299.338 57.9627C299.564 57.9586 299.785 58.0272 299.969 58.1583C300.058 58.2166 300.131 58.2964 300.18 58.3901C300.23 58.4838 300.255 58.5886 300.254 58.6947C300.227 59.0689 300.065 59.4208 299.799 59.6853L298.536 61.2375C298.348 61.517 298.09 61.7427 297.787 61.892C297.485 62.0414 297.149 62.1094 296.812 62.0893H295.789C295.458 62.1042 295.127 62.0347 294.83 61.8874C294.526 61.7451 294.263 61.528 294.066 61.2564L292.803 59.7042C292.592 59.4493 292.473 59.1321 292.462 58.8019C292.459 58.6843 292.487 58.5681 292.542 58.4642C292.598 58.3604 292.679 58.2724 292.778 58.2088C293.028 58.0451 293.325 57.9655 293.624 57.9817C294.101 58.0523 294.543 58.2733 294.886 58.6126L296.301 59.8241L297.715 58.6126C297.944 58.41 298.199 58.2382 298.473 58.1015C298.748 57.9942 299.043 57.9468 299.338 57.9627Z" fill="#21A73F"></path>
  <path d="M36.6288 38.9072C39.6849 36.825 41.8696 34.0361 42.5579 30.9065C42.6196 30.61 42.7515 30.3326 42.9427 30.0977C43.1339 29.8627 43.3787 29.677 43.6565 29.5562C43.8985 29.4569 44.1593 29.4116 44.4205 29.4237C44.6956 29.4408 44.9604 29.5348 45.1846 29.695C45.4095 29.8657 45.5888 30.0891 45.7066 30.3455C45.8244 30.602 45.8772 30.8835 45.8602 31.1652C45.9296 33.9033 45.4421 36.6271 44.4273 39.1715C43.4125 41.7159 41.8915 44.028 39.9564 45.9678C36.1679 49.6843 30.8702 51.9937 24.5687 52.2776C18.3997 52.5489 12.9252 50.8958 8.7326 47.9176C4.39347 44.9001 1.41393 40.3002 0.435721 35.1088C-0.71978 28.9126 0.479921 23.3285 3.3592 18.9874C4.926 16.6908 6.94032 14.7338 9.28162 13.2333C11.6229 11.7328 14.2431 10.7197 16.9853 10.2547C22.358 9.19854 27.9242 9.77433 32.9666 11.9078C37.6212 13.8747 41.4145 17.446 43.6565 21.9719C43.7369 22.1363 43.7963 22.3101 43.8333 22.4893C43.9335 22.9327 43.8823 23.3969 43.6881 23.808C43.4987 24.2147 43.1756 24.5443 42.7725 24.7418C42.6216 24.8131 42.4626 24.8661 42.299 24.8996L12.5969 31.2472C11.9791 31.4122 11.3264 31.3919 10.7201 31.1888C10.1138 30.9857 9.58069 30.6089 9.18722 30.1051C8.9315 29.7663 8.75071 29.377 8.65683 28.9631C8.5571 28.5483 8.5571 28.1159 8.65683 27.7011C8.81307 27.1686 9.12609 26.6955 9.55517 26.3432C9.98424 25.991 10.5095 25.776 11.0625 25.7262L38.7567 20.9749C36.7336 18.0866 33.8666 15.8938 30.5482 14.6967C26.5702 13.3448 22.2904 13.1457 18.2039 14.1225C17.5806 14.2544 16.965 14.4208 16.3602 14.621C12.7749 15.7541 9.69917 18.1045 7.6655 21.2652C5.78642 24.1319 5.10638 27.6203 5.77123 30.9822C5.85977 31.4092 5.97362 31.8306 6.1122 32.2441C7.20767 35.7043 9.60204 38.6059 12.7926 40.3396C16.076 42.1505 20.2813 42.9581 25.118 42.6868C29.2109 42.4758 33.1716 41.1681 36.5846 38.9009" fill="#21A73F"></path>
</svg>
